<svg width="75" height="75" viewBox="0 0 75 75" fill="none" xmlns="http://www.w3.org/2000/svg">
<path d="M37.5 2.25023C42.2592 2.25023 46.8722 3.18407 51.2264 5.018C53.3191 5.90684 55.333 6.9982 57.212 8.26958C59.0797 9.5297 60.8348 10.9811 62.4325 12.5788C64.0302 14.1764 65.4815 15.9316 66.7417 17.7993C68.0131 19.6782 69.1044 21.7034 69.9932 23.7849C71.8272 28.1278 72.761 32.7408 72.761 37.5113C72.761 42.2817 71.8272 46.8834 69.9932 51.2376C69.1044 53.3303 68.0131 55.3443 66.7417 57.2232C65.4815 59.0909 64.0302 60.8461 62.4325 62.4437C60.8348 64.0414 59.0797 65.4928 57.212 66.7529C55.333 68.0243 53.3078 69.1157 51.2264 70.0045C46.8834 71.8384 42.2705 72.7723 37.5 72.7723C32.7408 72.7723 28.1278 71.8384 23.7736 70.0045C21.6809 69.1157 19.667 68.0243 17.788 66.7529C15.9203 65.4928 14.1652 64.0414 12.5675 62.4437C10.9698 60.8461 9.51845 59.0909 8.25833 57.2232C6.98695 55.3443 5.89559 53.3191 5.00675 51.2376C3.18407 46.8834 2.25023 42.2592 2.25023 37.5C2.25023 32.7408 3.18407 28.1278 5.018 23.7736C5.90684 21.6809 6.9982 19.667 8.26958 17.788C9.5297 15.9203 10.9811 14.1652 12.5788 12.5675C14.1764 10.9698 15.9316 9.51845 17.7993 8.25833C19.6782 6.98695 21.7034 5.89559 23.7849 5.00675C28.1278 3.18407 32.7408 2.25023 37.5 2.25023ZM37.5 0C16.7867 0 0 16.7867 0 37.5C0 58.2133 16.7867 75 37.5 75C58.2133 75 75 58.2133 75 37.5C75.0112 16.7867 58.2133 0 37.5 0Z" fill="black"/>
<path d="M6.25586 37.5002C6.25586 49.8652 13.4453 60.565 23.8751 65.6281L8.96738 24.7865C7.22346 28.6681 6.25586 32.9773 6.25586 37.5002ZM58.6073 35.9251C58.6073 32.0659 57.2235 29.3882 56.0308 27.3067C54.4444 24.7302 52.9593 22.5475 52.9593 19.9822C52.9593 17.1132 55.142 14.4354 58.2023 14.4354C58.3373 14.4354 58.4723 14.4467 58.6073 14.4579C53.0493 9.36117 45.6348 6.25586 37.5002 6.25586C26.5866 6.25586 16.9782 11.8589 11.3864 20.3423C12.1177 20.3648 12.8153 20.376 13.4003 20.376C16.6631 20.376 21.7262 19.9822 21.7262 19.9822C23.4138 19.881 23.6051 22.3562 21.9287 22.5587C21.9287 22.5587 20.2298 22.7613 18.3508 22.8513L29.737 56.7059L36.5776 36.1951L31.7059 22.8513C30.0182 22.75 28.4318 22.5587 28.4318 22.5587C26.7442 22.4575 26.9467 19.881 28.6343 19.9822C28.6343 19.9822 33.7986 20.376 36.8702 20.376C40.133 20.376 45.196 19.9822 45.196 19.9822C46.8837 19.881 47.0749 22.3562 45.3985 22.5587C45.3985 22.5587 43.6996 22.7613 41.8207 22.8513L53.1055 56.4471L56.3346 46.2311C57.7635 41.7644 58.6073 38.6028 58.6073 35.9251ZM38.0515 40.2343L28.6681 67.4845C31.4696 68.3058 34.4287 68.7559 37.5002 68.7559C41.1343 68.7559 44.6334 68.1258 47.8738 66.9894C47.795 66.8544 47.7163 66.7082 47.6487 66.5619L38.0515 40.2343ZM64.9305 22.5137C65.0655 23.5038 65.1442 24.5727 65.1442 25.7316C65.1442 28.9044 64.5479 32.471 62.7703 36.9264L53.2181 64.5142C62.5115 59.1024 68.7559 49.0326 68.7559 37.5002C68.7559 32.0659 67.372 26.9579 64.9305 22.5137Z" fill="black"/>
</svg>
